HIERARCHY
ROOT HipCenter
{
    OFFSET 0.0 0.0 -0.0
    CHANNELS 6 Xposition Yposition Zposition Zrotation Xrotation Yrotation
    JOINT Spine
    {
        OFFSET 0.0 0.11784423142671585 0.0
        CHANNELS 3 Zrotation Xrotation Yrotation
        JOINT ShoulderCenter
        {
            OFFSET 0.0 0.31591737270355225 0.0
            CHANNELS 3 Zrotation Xrotation Yrotation
            JOINT LeftShoulder
            {
                OFFSET 0.16902485489845276 0.0 0.0
                CHANNELS 3 Zrotation Xrotation Yrotation
                JOINT LeftElbow
                {
                    OFFSET 0.24583856761455536 0.0 0.0
                    CHANNELS 3 Zrotation Xrotation Yrotation
                    JOINT LeftWrist
                    {
                        OFFSET 0.2672184705734253 0.0 0.0
                        CHANNELS 3 Zrotation Xrotation Yrotation
                        JOINT LeftHand
                        {
                            OFFSET 0.032809190452098846 0.0 0.0
                            CHANNELS 3 Zrotation Xrotation Yrotation
                            End Site
                            {
                                OFFSET 0.01312367431819439 0.0 0.0
                            }
                        }
                    }
                }
            }
            JOINT RightShoulder
            {
                OFFSET -0.16902485489845276 0.0 0.0
                CHANNELS 3 Zrotation Xrotation Yrotation
                JOINT RightElbow
                {
                    OFFSET -0.24583856761455536 0.0 0.0
                    CHANNELS 3 Zrotation Xrotation Yrotation
                    JOINT RightWrist
                    {
                        OFFSET -0.2672184705734253 0.0 0.0
                        CHANNELS 3 Zrotation Xrotation Yrotation
                        JOINT RightHand
                        {
                            OFFSET -0.032809190452098846 0.0 0.0
                            CHANNELS 3 Zrotation Xrotation Yrotation
                            End Site
                            {
                                OFFSET -0.01312367431819439 0.0 0.0
                            }
                        }
                    }
                }
            }
            End Site
            {
                OFFSET 0.0 0.12636694312095642 0.0
            }
        }
    }
    JOINT LeftHip
    {
        OFFSET 0.12334194779396057 0.0 0.0
        CHANNELS 3 Zrotation Xrotation Yrotation
        JOINT LeftKnee
        {
            OFFSET 0.0 -0.36661842465400696 0.0
            CHANNELS 3 Zrotation Xrotation Yrotation
            JOINT LeftAnkle
            {
                OFFSET 0.0 -0.3813181519508362 0.0
                CHANNELS 3 Zrotation Xrotation Yrotation
                JOINT LeftFoot
                {
                    OFFSET 0.0 -0.11607301235198975 0.0
                    CHANNELS 3 Zrotation Xrotation Yrotation
                    End Site
                    {
                        OFFSET 0.0 0.0 0.046429216861724854
                    }
                }
            }
        }
    }
    JOINT RightHip
    {
        OFFSET -0.12334194779396057 0.0 0.0
        CHANNELS 3 Zrotation Xrotation Yrotation
        JOINT RightKnee
        {
            OFFSET 0.0 -0.36661842465400696 0.0
            CHANNELS 3 Zrotation Xrotation Yrotation
            JOINT RightAnkle
            {
                OFFSET 0.0 -0.3813181519508362 0.0
                CHANNELS 3 Zrotation Xrotation Yrotation
                JOINT RightFoot
                {
                    OFFSET 0.0 -0.11607301235198975 0.0
                    CHANNELS 3 Zrotation Xrotation Yrotation
                    End Site
                    {
                        OFFSET 0.0 0.0 0.046429216861724854
                    }
                }
            }
        }
    }
}
MOTION
Frames: 7
Frame Time: 0.03333333333333333
0.3449999988079071 -0.09399999678134918 0.6010000109672546 -17.969135679214578 -70.84803531767103 160.13703721874316 0.5978163650043088 8.318597617073854 -0.22714717835293555 -2.2764132559805135e-07 1.3969184679724824e-06 4.417446533247693 101.28771388510619 -3.9705964704966052 -178.9322500395386 4.398093765419796e-06 -1.560659368631543e-08 46.16867488580965 179.99999828341888 -3.4292300717106423 -136.50233889871623 3.1805546814635168e-15 -6.3611093629270335e-15 -3.1805546814635168e-15 -101.26692115965997 3.1822942144789126 -176.1856120765761 -7.561321553555321e-07 -5.143240335797989e-07 -39.70816029288522 3.000590878670916e-07 -28.831446957348124 -35.32944290801876 -6.3611093629270335e-15 1.5902773407317584e-15 -3.1805546814635168e-15 -177.3193508930653 -68.47116426198941 -131.9324495789095 76.91247360593752 48.40876901358489 -112.41062487812782 124.41010293457207 -47.734372396629716 167.85091598499713 -3.1805546814635168e-15 -6.3611093629270335e-15 3.1805546814635168e-15 176.56688830955085 -69.18322537124602 132.08721256734012 -70.46608247433967 47.628257756558504 106.0416935614608 -60.00864840106296 -46.574258905420386 -105.316374618373 -1.5902773407317582e-15 -3.1805546814635164e-15 1.789062008323228e-15
0.3440000116825104 -0.08699999749660492 0.5929999947547913 -14.03621760054691 -67.40813675410858 162.85650467673233 0.09054325631311441 9.036476234080377 -0.05675386397062457 -4.461558259513538e-07 2.032697070586034e-06 5.473331215513854 101.65727620634492 -1.221083517776977 -177.5449084835391 7.0257875621084254e-06 -2.6809955676608906e-06 42.53317505125975 179.99999370978034 -6.149277017747945 -134.2066191337098 -3.1805546814635164e-15 -6.361109362927032e-15 -6.361109362927032e-15 -99.03703691988198 4.776860999399796 -175.65649854861604 -1.2557391612541651e-06 4.452933048492744e-06 -36.33760305958019 -2.5670576429080102e-06 -29.49370351833914 -36.878664188134756 0.0 0.0 0.0 -177.12922905472246 -70.05709110153936 -132.15383520927497 75.95548129540386 47.26898382162479 -110.06328127754031 116.57564869699566 -50.51551157436084 162.29148482333352 3.1805546814635168e-15 0.0 0.0 166.82959986345722 -72.35473356325583 123.17631925024355 -61.3344663087411 47.55113689423652 91.64606156286632 -55.654176637668535 -57.202410952705904 -99.59937230340854 0.0 0.0 7.951386703658792e-16
0.34200000762939453 -0.0860000029206276 0.5879999995231628 -12.011465495521662 -65.81588283696658 165.4326001602052 0.2740627654165913 8.56273774375567 0.014148293959335579 -2.904236210542872e-07 -4.4328979684910375e-06 4.89239811092055 102.48740873334198 -0.4791910032996111 -174.20512506036286 5.8269967375606306e-06 2.762263384858113e-06 37.575694786119655 179.99999460109018 -11.182521327388072 -134.00110351730277 0.0 0.0 0.0 -97.31277991149369 7.726846845579606 -177.30517747528697 -2.788316890597013e-06 6.520485661109769e-07 -31.725360808345748 5.018159467734669e-06 -29.423669478919287 -35.09409039528887 0.0 0.0 0.0 -172.41775969421735 -71.64522860137838 -128.62474240689536 66.62132112220098 44.77547789078214 -97.59324826273303 112.65993977502511 -56.27985158635433 161.10492536245064 0.0 0.0 -3.1805546814635168e-15 160.0512969753757 -74.11652889144416 116.90343227206041 -51.8905040748412 42.85611841826681 77.62107888315224 -45.79278183167534 -65.51471212942829 -92.48759979293942 0.0 0.0 1.5902773407317584e-15
0.33899998664855957 -0.09799999743700027 0.5789999961853027 -11.72511825774726 -62.7280378914251 166.73408082332114 -0.42524558887549996 8.704840218331139 0.10134436334718708 -5.357710432207787e-07 1.270829598154219e-06 4.848334775757325 104.04504133720626 -2.421469697030846 -171.0265869844896 4.020590933649252e-06 -6.26305528792999e-06 33.961845595844046 179.99999930995992 -18.15247879447704 -133.83411582440291 0.0 0.0 0.0 -96.17241394841744 10.946496354717306 -178.74682388096355 6.323572337308374e-07 4.80580280573085e-06 -27.79847505370737 1.5415409003937097e-06 -22.43418798244399 -37.19978461833136 2.2069531490250793e-32 7.951386703658791e-16 -3.1805546814635164e-15 -166.62517003122596 -76.17341392082409 -124.54761273265206 55.44848274245851 43.15385823835828 -83.98661149957637 115.69820401079475 -61.45295975271443 164.41730596265276 0.0 0.0 6.3611093629270335e-15 151.3344889994975 -77.79515044900972 110.26109127707575 -46.62767282014096 39.17897261561318 70.73371794850858 -43.45352632691719 -65.26721124427513 -92.91593399719588 0.0 0.0 -1.5902773407317584e-15
0.335999995470047 -0.12600000202655792 0.5680000185966492 -9.162338215448516 -57.8706613166379 169.81585355108646 0.28134763353091313 9.29689392747221 0.036239024507399464 5.449741512384329e-08 -1.9321920690704107e-06 4.154416230192799 104.04930122215667 -3.0252617944738858 -169.99447517318114 1.385315980432581e-06 -4.245867674352514e-06 33.574318264080645 -179.99999561942084 -20.142157202658453 -132.84381546554545 -3.1805546814635168e-15 8.827812596100317e-32 -3.1805546814635168e-15 -96.66289462463925 9.772546303788802 -179.79578691583094 -1.3686117261370294e-07 2.3585966713803344e-06 -25.815694655568173 -1.085564318071245e-06 -22.236362466650814 -35.201345052850215 -6.3611093629270335e-15 3.1805546814635168e-15 -1.5902773407317582e-15 -158.71256808189133 -82.35359824622095 -118.82119422756757 49.101231797110785 44.523228638849815 -79.85367009196545 116.74550452623653 -62.523931263216106 163.71163953682876 -3.1805546814635168e-15 0.0 0.0 134.55945775666282 -82.67827583379737 94.94793105476845 -47.35472866155365 40.815382115586566 76.55974074840012 -56.89982898846016 -63.35294886467953 -107.01372295181432 0.0 0.0 -1.5902773407317584e-15
0.3310000002384186 -0.16300000250339508 0.5619999766349792 -8.01708504581854 -52.664541574113684 171.79562540086965 0.5868138604308093 8.842425335579613 -0.06683591068138167 5.19430871338966e-07 1.0404586071954456e-06 3.246779118755665 103.87865983692774 -4.313731286014282 -170.66073154571856 8.782981517151817e-07 -2.7310911734098403e-06 35.77836002501618 -179.99999546964568 -20.809752712590537 -132.3475556423175 -7.951386703658793e-15 2.2069531490250793e-31 -3.1805546814635176e-15 -97.3156114110512 7.229169669629227 -179.7517725599237 1.3799795703052719e-06 1.975155610296107e-06 -26.784756376132016 9.105197479395905e-07 -20.5107641783879 -36.935664980826125 -6.361109362927033e-15 8.827812596100317e-32 -1.5902773407317582e-15 -133.6360702674147 -86.75156463909119 -95.43445941944587 50.507648371166724 50.71053005152481 -86.57293737624312 93.25483574607293 -58.933146549455934 136.92478598835655 0.0 0.0 -1.5902773407317584e-15 106.88678761148759 -86.01139142972126 68.74998369250625 -52.89308277001611 45.72730455950914 89.90011897933616 -83.61476346630506 -55.669439017717345 -133.29756688898252 -3.180554681463516e-15 4.4139062980501586e-32 -1.590277340731758e-15
0.3269999921321869 -0.19499999284744263 0.5569999814033508 -6.666662610139383 -48.94223464501084 172.82109351338855 1.0291864854925097 7.839578049590712 -0.07219681081508844 -1.3675380100414456e-07 -2.8000306266345257e-06 3.3236323456867805 103.9018874723537 -5.714245269712752 -170.82620905049254 -7.604252262633279e-07 2.2846869330631597e-06 39.90331568136475 179.99999711525703 -19.009556402964613 -131.36935918620978 9.541664044390549e-15 2.648343778830095e-31 3.1805546814635164e-15 -97.92617398562258 5.276966150414518 178.9481905743834 4.074091876067246e-06 -1.3813786091638958e-06 -30.259911910614687 4.586857119244044e-06 -23.61447612547726 -34.61686341172091 -6.3611093629270335e-15 -1.3241718894150476e-31 2.3854160110976376e-15 -102.62575284493148 -86.84195885602247 -66.72515445305602 58.11898399938058 55.20003365372769 -96.92360062705448 83.49855346274734 -51.441822667807465 124.32865054516013 -3.1805546814635164e-15 4.4139062980501586e-32 -1.5902773407317582e-15 83.01593771783064 -86.28285760740226 45.70454644180331 -60.65105969455462 49.54841483496971 102.4286529168922 -92.59334591651904 -47.76728376912375 -140.93849365417987 0.0 6.361109362927035e-15 0.0
